<svg width="16" height="16" xmlns="http://www.w3.org/2000/svg"><path d="M10.19 4.809a.991.991 0 0 0-.7.289.998.998 0 0 0-.017 1.375l.018.018 3.918 3.919c.824.824.823 2.18 0 3.005l-.072.068a2.133 2.133 0 0 1-2.928-.069l-.018-.016a.998.998 0 0 0-1.363 0l-.018.017a.998.998 0 0 0 0 1.393c1.578 1.575 4.165 1.591 5.762.036l.036-.036a4.116 4.116 0 0 0 .03-5.762l-.012-.012-3.937-3.936a.99.99 0 0 0-.7-.29v.001Zm-8.3 3.917a.99.99 0 0 0-.7.29 4.116 4.116 0 0 0 0 5.791v.001a4.12 4.12 0 0 0 5.768.03l3.95-3.947-.007-.008.007.007a1 1 0 0 0 0-1.394 1 1 0 0 0-1.398 0l-3.92 3.919a2.133 2.133 0 0 1-3 0 2.137 2.137 0 0 1 0-3.006 1 1 0 0 0 0-1.393.993.993 0 0 0-.675-.29H1.89ZM4.09 0C3.005 0 1.96.432 1.193 1.2a4.116 4.116 0 0 0-.026 5.765l.025.026.008-.006-.007.007L5.11 10.91a.988.988 0 0 0 1.399 0l.017-.018a.998.998 0 0 0-.017-1.374l-.007.007.007-.008-3.92-3.918a2.137 2.137 0 0 1 0-3.005l.073-.068a2.131 2.131 0 0 1 2.928.068.998.998 0 0 0 1.38.018l.02-.018a.998.998 0 0 0 .017-1.376L6.99 1.2A4.105 4.105 0 0 0 4.092 0H4.09Zm10.718 1.198C13.23-.377 10.64-.39 9.046 1.16l-.087.09L5.09 5.117l-.043.047a.999.999 0 0 0 .025 1.33l.018.018a1 1 0 0 0 1.399 0l3.917-3.918-.007-.007.009.007a.95.95 0 0 0 .046-.05 2.14 2.14 0 0 1 2.956.048 2.13 2.13 0 0 1 0 3l-.045.047a.998.998 0 0 0 .044 1.348l.018.018a.999.999 0 0 0 1.38-.018l-.006-.007.007.007a4.108 4.108 0 0 0 0-5.789h-.001Z" fill="#2073DF" fill-rule="evenodd"/></svg>