<svg width="160" height="27" id="logo" xmlns="http://www.w3.org/2000/svg"><g fill="currentColor" fill-rule="nonzero"><path d="M5.806 5.796c1.4 0 2.52-1.092 2.52-2.52S7.206.728 5.806.728a2.54 2.54 0 0 0-2.548 2.548c0 1.428 1.148 2.52 2.548 2.52Zm-5.6 21.196c5.18 0 8.232-2.436 8.232-9.072v-5.964c0-1.792 0-2.856.168-4.396a1.749 1.749 0 0 0-.896-.896C5.89 7.7 3.622 8.54 1.69 8.68v1.036c1.148 0 1.736.28 1.736 2.52v8.4c0 4.144-1.372 5.32-3.22 5.32v1.036ZM18.834 19.852c-2.492 0-3.5-2.464-3.696-5.768h5.88c1.4 0 1.876-1.316 1.876-2.604 0-2.688-2.24-4.76-5.768-4.76-3.836 0-7 2.464-7 7.336 0 4.928 3.276 7.252 6.916 7.252 2.044 0 4.76-.756 5.852-3.304H21.69c-.756 1.344-1.652 1.848-2.856 1.848Zm-2.072-11.9c1.316 0 1.848 2.24 1.68 4.956H15.11v-.112c0-2.408.252-4.844 1.652-4.844ZM23.406 21c2.968-.084 5.908-.084 8.904 0v-1.064c-1.316-.112-2.072-.476-2.072-1.736v-4.48c0-2.24.504-4.032 1.512-4.032s1.288 1.736 2.828 1.736c1.12 0 2.044-.868 2.044-2.268 0-1.596-1.148-2.436-2.688-2.436-2.268 0-3.22 1.708-4.144 4.116h-.224l.504-3.276a1.653 1.653 0 0 0-.896-.896c-2.044 1.12-3.612 1.54-5.684 2.016v1.036c1.036-.224 1.764.336 1.764 1.652V18.2c0 1.26-.756 1.624-1.848 1.736V21ZM45.17 19.852c-2.492 0-3.5-2.464-3.696-5.768h5.88c1.4 0 1.876-1.316 1.876-2.604 0-2.688-2.24-4.76-5.768-4.76-3.836 0-7 2.464-7 7.336 0 4.928 3.276 7.252 6.916 7.252 2.044 0 4.76-.756 5.852-3.304h-1.204c-.756 1.344-1.652 1.848-2.856 1.848Zm-2.072-11.9c1.316 0 1.848 2.24 1.68 4.956h-3.332v-.112c0-2.408.252-4.844 1.652-4.844ZM74.298 11.76c0-4.116-2.52-5.04-4.48-5.04-2.772 0-4.256 1.764-4.732 2.856-.728-2.268-2.576-2.856-4.2-2.856-2.912 0-4.368 1.792-4.816 3.08h-.224l.476-2.24c-.196-.392-.504-.728-.924-.896-2.044 1.148-3.64 1.54-5.712 2.016v1.036c1.036-.224 1.764.392 1.764 1.652V18.2c0 1.26-.812 1.624-1.848 1.736V21c2.912-.084 5.796-.084 8.708 0v-1.064c-1.12.084-1.876-.476-1.876-1.736v-6.468c0-.98.448-2.688 2.1-2.688.952 0 1.848.532 1.848 2.688V18.2c0 1.26-.812 1.82-1.904 1.736V21c2.968-.084 5.852-.084 8.764 0v-1.064c-1.12.028-1.876-.476-1.876-1.736v-6.524c.028-1.232.7-2.632 2.184-2.632.952 0 1.764.532 1.764 2.688V18.2c0 1.26-.812 1.82-1.904 1.736V21c2.968-.084 5.852-.084 8.764 0v-1.064c-1.12-.112-1.876-.476-1.876-1.736v-6.44ZM84.694 8.008c2.296.056 3.22.448 2.324 2.688l-2.52 6.076-2.576-6.076c-1.008-2.38.56-2.632 2.212-2.688V6.972h-9.38v1.036c1.484.056 1.68.308 2.66 2.604l4.956 11.172-2.324 4.816h1.764l6.384-15.848c.896-2.296 1.092-2.716 2.884-2.744V6.972h-6.384v1.036ZM105.35 6.72c-1.624 0-3.108.756-3.724 1.372V6.58c0-1.792 0-2.856.168-4.396a1.653 1.653 0 0 0-.896-.896c-1.792 1.036-4.06 1.876-6.02 2.016V4.34c1.176 0 1.764.028 1.764 2.24v13.16c0 .812.448 1.26 1.26 1.26h.336c.084-.896.812-1.596 1.932-1.596 1.82 0 2.632 1.904 5.236 1.904 2.38 0 6.132-1.652 6.132-7.056 0-5.124-3.36-7.532-6.188-7.532Zm-1.008 13.216c-1.008 0-2.716-1.288-2.716-3.92v-6.02c.196-1.148.924-1.82 1.764-1.82 1.736 0 2.8 2.688 2.8 6.608 0 2.744-.392 5.152-1.848 5.152ZM119.554 21.308c3.22 0 6.916-2.072 6.916-7.14 0-5.18-3.864-7.448-7.196-7.448-3.22 0-6.916 2.072-6.916 7.112 0 5.208 3.864 7.476 7.196 7.476Zm.196-1.344c-1.4 0-2.184-3.136-2.184-7.14 0-2.8.42-4.76 1.512-4.76 1.4 0 2.184 3.164 2.184 7.112 0 2.8-.392 4.788-1.512 4.788ZM126.59 21c2.856-.056 5.74-.056 8.624 0v-1.064c-1.12-.112-1.848-.476-1.848-1.736V6.58c0-1.792 0-2.856.168-4.396a1.749 1.749 0 0 0-.896-.896c-1.82 1.036-4.06 1.876-6.02 2.016V4.34c1.148 0 1.736.028 1.736 2.24V18.2c0 1.26-.784 1.624-1.764 1.736V21ZM144.042 19.852c-2.492 0-3.5-2.464-3.696-5.768h5.88c1.4 0 1.876-1.316 1.876-2.604 0-2.688-2.24-4.76-5.768-4.76-3.836 0-7 2.464-7 7.336 0 4.928 3.276 7.252 6.916 7.252 2.044 0 4.76-.756 5.852-3.304h-1.204c-.756 1.344-1.652 1.848-2.856 1.848Zm-2.072-11.9c1.316 0 1.848 2.24 1.68 4.956h-3.332v-.112c0-2.408.252-4.844 1.652-4.844ZM155.026 21.448c2.716 0 4.648-1.736 4.648-3.976 0-3.08-3.472-4.592-4.984-5.572-.952-.644-2.072-1.176-2.072-2.352 0-.812.616-1.624 1.708-1.624 1.316 0 2.632 1.148 3.584 3.164h.896l-.28-4.116h-.84c-.056.308-.336.616-.924.616-.84 0-1.792-.868-3.556-.868-2.548 0-4.424 1.68-4.424 4.172 0 3.08 2.884 4.34 4.76 5.32 1.232.532 1.988 1.204 1.988 2.296 0 .924-.756 1.596-1.708 1.596-1.484 0-3.276-1.232-4.06-3.332h-.84L149.09 21h.952c0-.42.252-.868.868-.868 1.064 0 1.708 1.316 4.116 1.316Z"/></g></svg>